PathFileType	4	(X/Y/Z)	C:/Users/beibeiliu/ov580/test_trc/User3\sequence.32_training_dense_left.trc
DataRate	CameraRate	NumFrames	NumMarkers	Units	OrigDataRate	OrigDataStartFrame	OrigNumFrames
120	120	17	19	mm	120	1	85
Frame#	Time	ThumbCMC			ThumbMCP			ThumbIP			ThumbTip			IndexMCP			IndexPIP			IndexTip			MiddleMCP			MiddlePIP			MiddleTip			RingMCP			RingPIP			RingTip			PinkyMCP			PinkyPIP			PinkyTip			BackHand1			BackHand2			BackHand3	
		X0	Y0	Z0	X1	Y1	Z1	X2	Y2	Z2	X3	Y3	Z3	X4	Y4	Z4	X5	Y5	Z5	X6	Y6	Z6	X7	Y7	Z7	X8	Y8	Z8	X9	Y9	Z9	X10	Y10	Z10	X11	Y11	Z11	X12	Y12	Z12	X13	Y13	Z13	X14	Y14	Z14	X15	Y15	Z15	X16	Y16	Z16	X17	Y17	Z17	X18	Y18	Z18	
0	0	-89.9515	17.7756	-1.96642	-71.1058	10.5861	-23.9061	-50.6653	7.16599	-46.6941	-40.0987	0.483656	-70.2903	-110.714	37.9844	-77.2093	-101.257	35.7867	-104.196	-93.9963	23.5607	-133.252	-135.598	38.0073	-83.0406	-135.584	35.778	-113.634	-133.255	19.9546	-143.643	-152.9	27.162	-78.6923	-156.255	23.954	-102.515	-156.832	8.77191	-127.749	-173.569	12.332	-63.6419	-177.409	7.51307	-83.8033	-174.41	-3.80431	-108.116	-154.557	33.2546	-26.1245	-155.679	28.9438	8.58649	-123.664	38.8273	-10.4332	
1	0.00833333	-91.4925	15.6287	-4.07208	-70.402	10.1673	-24.7645	-55.9759	4.99718	-47.7994	-41.1853	-1.57757	-69.62	-110.996	36.5305	-78.537	-102.389	33.7037	-108.284	-95.8738	21.1215	-133.77	-135.215	36.5434	-85.4696	-135.028	34.5497	-110.931	-134.258	18.6697	-143.503	-157.351	24.6452	-76.4118	-155.29	21.5379	-102.468	-156.287	5.006	-131.946	-171.093	10.0488	-59.8437	-178.108	3.06403	-88.3281	-178.52	-7.43107	-106.943	-156.366	29.7555	-22.382	-154.967	29.3329	6.24652	-122.637	36.8235	-12.1309	
2	0.0166667	-91.7301	13.399	-1.32474	-72.6581	8.10481	-21.6879	-52.6444	3.88616	-49.877	-44.6358	-2.95515	-65.6714	-105.797	35.6943	-80.5914	-103.103	32.5014	-104.9	-93.0506	22.8961	-128.901	-137.735	34.791	-81.0594	-135.729	32.3452	-110.791	-132.189	19.31	-141.123	-152.523	24.4713	-73.4443	-155.967	18.3865	-105.301	-157.823	3.35796	-129.34	-173.546	9.55522	-59.9184	-179.275	0.999065	-84.6033	-177.136	-11.6289	-104.152	-157.103	29.5801	-21.585	-153.866	26.8769	6.98216	-123.864	34.6234	-8.21616	
3	0.025	-92.1475	16.2225	-5.52923	-77.0995	9.39433	-25.444	-60.3284	4.3454	-49.987	-51.2729	-3.06082	-67.402	-114.751	36.1194	-79.5722	-105.772	33.1227	-107.398	-106.345	22.6805	-127.75	-141.094	35.6901	-78.4158	-142.467	31.7142	-111.478	-141.398	16.4498	-139.703	-158.422	25.1765	-74.3249	-163.655	17.7849	-101.992	-163.055	4.50346	-122.97	-174.381	9.43701	-57.0706	-181.886	1.71155	-82.2559	-184.571	-13.6155	-101.783	-159.624	30.1474	-22.5383	-161.17	27.0594	8.25958	-126.631	36.8041	-9.72602	
4	0.0333333	-111.052	12.3737	-6.92094	-92.906	8.32139	-34.57	-78.4229	2.90222	-58.6641	-74.4468	-5.31142	-81.6496	-135.199	34.6618	-78.8673	-133.191	31.0381	-106.289	-128.451	17.9916	-130.915	-162.33	33.4652	-84.3955	-163.771	24.7429	-114.241	-162.762	7.28922	-137.87	-183.67	16.5882	-71.7212	-185.17	8.91238	-102.262	-184.752	-12.8719	-121.84	-198.35	-0.717339	-56.4073	-199.806	-8.17153	-78.2772	-201.083	-27.6363	-97.4218	-177.759	25.8461	-20.06	-170.249	23.3139	7.77738	-143.705	32.1826	-11.1347	
5	0.0416667	-138.975	-1.20731	-25.6273	-126.573	-6.67393	-51.5323	-120.487	-12.5952	-81.9479	-119.143	-22.5397	-103.708	-173.967	17.6482	-87.8279	-179.837	7.9284	-119.476	-173.656	-7.91829	-138.852	-203.771	10.6191	-88.9742	-204.835	1.59581	-118.091	-202.413	-27.2699	-137.359	-218.987	-4.90508	-75.1535	-223.184	-19.25	-103.657	-216.676	-43.2909	-116.035	-227.736	-20.9407	-58.5326	-231.242	-32.8498	-78.8274	-222.229	-57.4269	-92.2783	-202.591	6.90973	-22.1388	-196.401	2.87316	4.42935	-169.132	16.9308	-19.9068	
6	0.05	-166.848	-29.5418	-45.9251	-161.353	-38.5446	-74.9084	-161.637	-47.6287	-99.4358	-167.527	-56.71	-122.224	-218.84	-16.4513	-104.531	-219.94	-25.3634	-130.258	-217.181	-52.0403	-145.088	-241.211	-24.0301	-100.102	-242.054	-37.0031	-126.382	-230.566	-74.7983	-135.131	-247.573	-36.0914	-83.9776	-253.988	-56.6888	-108.506	-234.035	-85.8514	-111.412	-259.047	-55.0341	-66.1544	-256.065	-74.5475	-88.1847	-236.114	-93.1456	-88.235	-229.21	-24.3828	-33.7099	-221.422	-26.1258	-5.34068	-200.445	-11.2797	-32.8352	
7	0.0583333	-176.445	-47.3431	-55.7958	-173.913	-59.9346	-85.7683	-177.239	-70.2205	-117.404	-186.659	-83.9953	-135.081	-232.549	-38.6531	-116.326	-234.194	-59.4142	-142.683	-226.734	-86.4836	-142.758	-252.573	-48.655	-112.255	-252.92	-70.9218	-132.873	-228.031	-103.699	-121.311	-259.603	-60.49	-96.046	-260.769	-89.6827	-109.82	-236.823	-107.168	-97.3167	-269.595	-77.1367	-78.7111	-259.962	-97.8544	-90.753	-231.793	-107.326	-76.0746	-245.085	-41.3445	-43.1753	-231.832	-39.7986	-19.1215	-209.406	-25.6296	-48.888	
8	0.0666667	-177.683	-52.4523	-62.0125	-174.357	-66.7731	-90.582	-178.213	-80.0332	-115.377	-193.459	-96.6484	-132.807	-228.709	-48.9448	-120.955	-227.539	-77.5115	-143.076	-206.922	-99.0181	-127.995	-246.622	-60.8604	-115.999	-241.809	-93.9911	-128.506	-217.306	-106.328	-102.264	-256.021	-75.8158	-101.686	-247.072	-104.848	-105.29	-220.379	-104.729	-82.4963	-263.951	-86.166	-80.2059	-247.613	-108.256	-87.3939	-224.788	-104.868	-64.1169	-244.232	-44.8986	-52.983	-231.898	-42.9979	-22.5321	-210.092	-32.4379	-53.6932	
9	0.075	-175.138	-43.127	-53.111	-163.544	-56.2736	-85.1811	-164.157	-69.6206	-110.057	-182.881	-87.6667	-121.235	-218.578	-44.5171	-119.445	-214.678	-71.6747	-134.882	-194.263	-88.2956	-111.57	-234.51	-59.3479	-115.585	-220.795	-88.7395	-121.547	-202.562	-89.7756	-87.2837	-241.487	-72.8813	-101.165	-230.353	-100.743	-96.2822	-209.965	-90.2449	-69.5457	-250.228	-80.3	-80.1447	-228.997	-101.982	-77.4391	-215.282	-88.3	-55.7238	-244.011	-39.7565	-49.6473	-232.962	-36.6631	-23.2934	-207.075	-23.9559	-48.4287	
10	0.0833333	-162.571	-21.5167	-39.9293	-149.485	-33.3592	-67.4874	-148.372	-47.482	-94.9896	-165.153	-66.3622	-110.024	-200.596	-26.6925	-107.521	-186.84	-51.266	-120.531	-173.323	-62.6571	-89.8879	-214.303	-42.5367	-106.288	-197.414	-67.7753	-107.941	-187.507	-66.525	-70.2892	-225.79	-57.5752	-88.4533	-206.925	-80.6062	-84.7498	-192.263	-66.0858	-54.7719	-231.598	-63.6618	-73.7477	-208.475	-81.9733	-67.8654	-201.153	-66.7843	-43.6816	-232.765	-23.6142	-41.1277	-224.1	-22.4707	-14.8693	-199.864	-6.11238	-35.4925	
11	0.0916667	-146.123	1.16675	-15.5829	-123.815	-3.63468	-44.7275	-121.165	-15.8909	-73.3501	-138.25	-33.9661	-87.1594	-173.585	3.23267	-90.6917	-157.209	-21.992	-101.705	-147.966	-33.4056	-74.893	-188.902	-11.9275	-89.0278	-170.763	-40.4394	-92.3201	-163.198	-37.7225	-51.8249	-200.309	-28.5705	-75.4254	-179.001	-51.0288	-74.3932	-172.09	-44.4325	-41.4617	-203.418	-40.298	-66.1256	-185.108	-55.3115	-58.4392	-181.771	-44.2504	-27.2426	-214.636	-0.729715	-28.4902	-209.653	-3.64247	2.67173	-179.449	16.1389	-18.924	
12	0.1	-130.246	23.8105	-1.08035	-110.035	19.3109	-25.0361	-99.499	11.0495	-54.4161	-113.836	-6.25583	-73.7288	-151.764	30.4453	-74.5623	-132.918	8.81229	-86.8925	-124.291	-5.96842	-61.1979	-165.259	15.0438	-76.1287	-146.958	-12.5189	-79.5147	-141.76	-17.0402	-43.1608	-179.528	-5.15923	-65.126	-154.309	-25.6679	-62.6815	-151.21	-20.8088	-30.2948	-186.954	-18.1538	-52.8447	-164.768	-33.6853	-49.1141	-159.97	-23.7164	-16.9885	-192.141	19.042	-16.2884	-190.293	12.8181	18.2756	-164.312	33.6263	1.0691	
13	0.108333	-115.037	38.1485	14.8733	-92.5705	40.1353	-13.7965	-85.8722	33.6669	-43.7853	-99.6549	15.0873	-62.6939	-141.441	49.7715	-58.9673	-121.13	31.9017	-77.9936	-109.215	13.8735	-48.3791	-151.726	34.6201	-67.7391	-129.882	10.8995	-72.5813	-124.063	2.40661	-36.9273	-161.284	15.2251	-58.7139	-141.913	-5.65659	-59.1856	-134.843	-4.88152	-26.001	-166.949	1.07457	-49.0955	-145.962	-16.1037	-40.422	-143.514	-8.5396	-12.672	-179.333	31.7403	-6.4445	-178.797	25.5671	25.4341	-153.29	48.5105	15.3413	
14	0.116667	-107.47	47.4817	19.6468	-86.2572	49.5282	-5.32966	-77.9038	45.7573	-36.5587	-92.5598	29.8932	-56.764	-134.503	61.6598	-55.9645	-115.225	44.1026	-73.1192	-102.713	26.7193	-46.5796	-145.191	49.2982	-59.7573	-123.398	26.6701	-71.193	-119.249	13.2971	-31.3509	-154.88	28.644	-54.9035	-134.134	6.25913	-57.5393	-126.785	5.35573	-27.0564	-162.88	9.26399	-48.025	-141.721	-5.50511	-45.2113	-135.998	-1.9825	-10.7808	-175.967	37.5408	0.660245	-169.749	30.0273	27.9144	-147.447	54.72	17.9011	
15	0.125	-105.717	47.1232	18.0805	-87.0006	50.5852	-9.36666	-79.5255	50.2211	-42.0315	-91.4051	34.5074	-59.5008	-132.784	69.9322	-53.1581	-113.384	53.1049	-73.7668	-104.492	28.9687	-47.8475	-148.958	55.1821	-58.81	-123.795	32.266	-72.2858	-117.789	17.6925	-38.061	-158.642	36.2199	-54.2627	-137.366	15.4976	-61.9378	-129.628	8.78222	-29.9583	-166.893	17.0249	-48.6567	-143.726	3.27163	-49.3117	-134.602	3.00321	-18.8457	-172.508	44.0258	-1.17935	-168.997	32.9053	28.9221	-144.528	60.4183	17.2594	
16	0.133333	-108.206	46.0374	16.8507	-89.1055	50.8161	-14.8107	-84.3738	48.2135	-42.3488	-101.581	35.2653	-64.4002	-138.449	71.7791	-52.569	-122.436	51.6297	-76.2434	-110.018	30.7616	-55.8822	-155.292	56.5775	-58.7526	-135.775	33.4054	-76.3913	-125.648	17.1373	-43.145	-161.561	40.7052	-56.4345	-145.58	15.1309	-64.5465	-135.572	10.0161	-30.5973	-172.351	21.6279	-50.476	-152.987	5.75354	-54.0455	-142.174	2.41391	-26.403	-176.553	44.7468	2.17995	-172.489	36.4607	26.8721	-148.369	59.6695	15.1415	
